<?xml version="1.0" encoding="UTF-8"?>
<svg width="1448px" height="478px" viewBox="0 0 1448 478" version="1.1" xmlns="http://www.w3.org/2000/svg" xmlns:xlink="http://www.w3.org/1999/xlink">
    <!-- Generator: Sketch 62 (91390) - https://sketch.com -->
    <title>Logo - Light Theme</title>
    <desc>Created with Sketch.</desc>
    <g id="Logo---Light-Theme" stroke="none" stroke-width="1" fill="none" fill-rule="evenodd">
        <g id="Group" fill="#0A0B09">
            <path d="M230.192,277.47 C276.805,246.05 309.572,183.586 309.572,127.855 C309.572,55.494 224.698,20.13 208.92,20.13 C108.813,20.13 0,146.353 0,189.606 C0,206.744 10.065,215.176 16.322,225.786 C22.579,236.395 36.996,264.96 53.862,264.96 C60.119,264.96 61.003,257.48 57.331,253.8 C48.966,245.44 41.009,236.667 41.009,216.469 C41.009,179.948 166.484,65.287 244.828,65.287 C261.558,65.287 275.296,69.64 275.296,110.444 C275.296,162.615 231.99,230.988 194.838,251.4 C209.342,199.699 223.576,149.863 223.576,124.046 C223.576,103.644 195.727,95.993 177.364,95.993 C171.541,95.993 174.066,106.092 174.066,122.414 C174.066,171.379 112.179,334.6 112.179,371.32 C112.179,385.33 121.915,385.32 129.464,392.87 C135.62,399.02 148.121,407.64 164.268,407.64 C166.789,407.64 164.409,402.27 164.409,393.71 C164.409,373.38 170.282,344.32 178.325,312.4 C185.63,306.84 202.048,302.09 218.849,302.09 C231.771,302.09 238.027,306.58 238.027,311.75 C238.027,340.72 199.943,428.18 128.671,428.18 C107.997,428.18 100.652,413.21 100.652,419.2 C100.652,425.18 122.822,468.44 152.202,468.44 C202.936,468.44 271.352,408.86 271.352,323.17 C271.352,304.09 259.494,285.47 230.192,277.47" id="Fill-4"></path>
            <path d="M632.881,211.572 C635.126,211.572 637.574,214.837 637.574,224.834 C637.574,237.075 628.801,250.68 619.212,250.68 C617.79,250.68 616.398,249.94 615.174,248.84 C618.738,225.26 627.464,211.572 632.881,211.572 Z M328.437,321.95 C326.805,321.95 325.214,318.92 325.214,315.71 C325.214,302.25 348.881,218.033 368.739,218.033 C370.279,218.033 372.285,219.16 373.872,221.544 C365.847,250.22 335.281,321.95 328.437,321.95 Z M967.886,38.628 C1000.936,38.628 1033.316,50.19 1033.316,74.264 C1033.316,93.442 1019.766,103.644 1026.236,103.644 C1034.126,103.644 1044.196,85.281 1044.196,66.103 C1044.196,35.908 1021.206,0 953.196,0 C772.026,0 629.209,59.574 629.209,101.195 C629.209,109.9 634.922,131.935 639.818,131.935 C660.22,131.935 711.226,137.897 711.226,187.293 C711.226,220.753 667.565,308.48 630.841,308.48 C624.942,308.48 613.58,291.35 613.58,270.95 C613.58,268.4 613.645,265.93 613.756,263.52 C615.502,264.96 617.759,265.84 620.64,265.84 C637.778,265.84 654.1,252.17 654.1,218.305 C654.1,184.029 638.214,166.891 616.996,166.891 C604.036,166.891 581.087,196.809 578.12,249.65 C566.853,274.35 543.033,313.65 534.134,313.65 C523.933,313.65 545.967,253.8 545.967,218.917 C545.967,201.847 516.588,196.134 516.588,160.362 C516.588,146.897 529.442,124.25 529.442,112.621 C529.442,95.891 501.335,87.794 490.93,87.794 C488.482,87.794 489.419,94.021 486.664,101.059 C478.885,122.711 479.069,140.042 482.676,154.156 C479.372,198.365 430.133,324.3 411.602,324.3 C409.154,324.3 404.647,320.21 404.647,309.98 C404.647,259.11 427.361,229.73 427.361,218.917 C427.361,204.227 400.964,189.334 388.111,189.334 C385.631,189.334 382.379,198.317 379.15,211.453 C373.91,202.76 341.551,187.293 330.314,187.293 C310.932,188.925 283.185,265.23 283.185,302.23 C283.185,320.18 305.287,351.74 329.158,351.74 C341.088,351.74 355.678,320.67 367.008,287.83 C366.634,292.81 366.426,297.32 366.426,301.14 C366.426,323.17 388.597,348.06 413.08,348.06 C445.545,348.06 488.556,241.155 499.351,188.104 C504.776,196.132 509.243,202.38 509.243,207.695 C509.243,213.816 495.369,240.748 495.369,275.02 C495.369,298.28 509.855,333.37 538.418,333.37 C553.315,333.37 569.396,305.03 579.944,279.23 C586.131,305.88 605.789,333.37 640.226,333.37 C701.025,333.37 730.406,226.058 730.406,187.293 C730.406,126.323 675.811,120.467 652.248,119.987 C670.006,102.23 711.17,69.037 810.516,51.024 C784.386,108.432 710.579,308.67 706.884,366.71 C548.757,367.3 349.956,397.04 335.143,411.86 C315.557,431.44 309.572,458.64 309.572,476.05 C309.572,493.95 385.748,400.94 715.628,400.3 C722.836,412.25 733.766,421.51 745.906,421.51 C751.116,421.51 746.726,415.66 753.976,383.9 C770.946,307.61 844.546,97.433 868.756,43.072 C897.906,40.253 930.786,38.628 967.886,38.628 L967.886,38.628 Z" id="Fill-5"></path>
            <path d="M1410.336,242.11 C1412.736,242.11 1414.826,244.22 1414.826,247.82 C1414.826,255.59 1387.216,298.42 1365.176,298.42 C1364.206,298.42 1363.276,298.09 1362.406,297.59 C1378.016,269.93 1401.566,242.11 1410.336,242.11 Z M1047.996,212.592 C1050.236,212.592 1051.936,214.769 1051.936,219.393 C1051.936,227.962 1036.296,262.78 1021.876,262.78 C1020.936,262.78 1020.166,262.49 1019.556,262 C1029.496,237.119 1042.526,212.592 1047.996,212.592 Z M1441.556,285.22 C1441.556,299.23 1398.106,353.27 1363.426,353.27 C1355.876,353.27 1347.636,348.88 1347.636,338.41 C1347.636,332.02 1349.946,323.88 1353.696,315.04 C1357.506,318.11 1363.116,320.38 1371.196,320.38 C1400.276,320.38 1430.736,279.65 1430.736,253.8 C1430.736,229.322 1408.976,207.288 1387.076,207.288 C1365.986,207.288 1338.036,250.1 1325.326,283.08 C1311.846,301.41 1288.836,328.07 1280.576,328.07 C1278.406,328.07 1275.816,325.08 1275.816,319.91 C1275.816,299.64 1321.796,240.135 1321.796,217.285 C1321.796,200.759 1303.426,180.969 1284.046,180.969 C1270.806,180.969 1240.296,218.796 1215.746,253.64 C1225.986,233.159 1234.676,215.206 1234.676,208.512 C1234.676,191.238 1206.046,176.684 1197.136,176.684 C1183.266,176.684 1142.376,235.183 1117.446,279.6 C1130.476,243.63 1146.736,209.353 1146.736,204.839 C1146.736,180.969 1117.596,174.576 1110.186,174.576 C1106.206,174.576 1106.446,178.119 1106.446,180.492 C1106.446,182.924 1093.366,213.143 1082.466,245.28 C1067.756,269.58 1027.566,315.56 1010.566,315.56 C1008.426,315.56 1006.896,313.28 1006.896,307.16 C1006.896,300.11 1010.086,288.01 1014.746,274.78 C1017.136,276.87 1019.986,278.29 1022.896,278.29 C1041.466,278.29 1066.966,244.83 1066.966,210.144 C1066.966,196.474 1047.246,178.452 1028.136,178.452 C1013.776,178.452 997.166,206.227 986.466,236.548 C972.556,259.86 940.186,309.16 931.286,309.16 C929.046,309.16 928.026,306.99 928.026,303.31 C928.026,289.85 965.836,223.609 965.836,210.552 C965.836,197.494 944.346,178.452 929.116,178.452 C917.536,178.452 890.066,213.94 869.166,245.49 C896.426,176.085 936.906,94.507 936.906,85.847 C936.906,69.797 910.716,53.794 903.306,53.794 C899.326,53.794 899.566,57.337 899.566,59.711 C899.566,67.403 810.066,259.25 810.066,306.31 C810.066,310.93 813.326,314.74 816.596,318 C819.856,321.27 822.036,347.11 842.976,347.11 C843.736,347.11 844.206,346.64 844.516,345.75 C844.916,344.56 845.006,342.61 844.996,339.96 C850.976,300.45 911.246,213 914.156,213 C916.196,213 916.326,216.128 916.326,218.305 C916.326,220.481 894.566,263.05 894.566,279.65 C894.566,301.14 917.966,334.87 941.086,334.87 C950.336,334.87 963.886,312.62 975.376,288.76 C975.366,289.36 975.356,289.95 975.356,290.53 C975.356,302.77 991.066,335.41 1012.496,335.41 C1026.556,335.41 1052.096,312.64 1070.106,289.22 C1068.766,296.11 1067.986,302.38 1067.986,307.67 C1067.986,320.32 1086.076,345.62 1101.456,345.62 C1111.376,345.62 1179.536,210.552 1189.176,210.552 C1191.116,210.552 1192.186,211.708 1192.186,214.428 C1192.186,221.161 1152.246,282.57 1152.246,294.2 C1152.246,314.2 1175.506,331.74 1183.056,331.74 C1188.086,331.74 1258.276,215.993 1270.786,215.993 C1273.506,215.993 1274.046,217.897 1274.046,220.617 C1274.046,225.378 1234.676,279.1 1234.676,314.6 C1234.676,335.41 1258.626,360.71 1275.956,360.71 C1287.576,360.71 1305.336,341.68 1319.206,321.75 C1323.596,356.8 1348.806,382.75 1374.026,382.75 C1420.946,382.75 1463.556,307.22 1441.556,285.22 L1441.556,285.22 Z" id="Fill-6"></path>
            <path d="M787.126,364.39 C784.266,364.39 777.546,390.91 777.546,398.25 C1124.656,398.25 1276.726,446.39 1282.446,446.39 C1283.746,446.39 1281.316,413.44 1266.526,398.65 C1252.636,384.76 1043.376,364.39 787.126,364.39" id="Fill-7"></path>
        </g>
    </g>
</svg>